<?xml version="1.0" standalone="no"?><!DOCTYPE svg PUBLIC "-//W3C//DTD SVG 1.1//EN" "http://www.w3.org/Graphics/SVG/1.1/DTD/svg11.dtd"><svg t="1734682982146" class="icon" viewBox="0 0 1024 1024" version="1.1" xmlns="http://www.w3.org/2000/svg" p-id="4640" width="16" height="16" xmlns:xlink="http://www.w3.org/1999/xlink"><path d="M811.707317 1024h-599.414634C94.907317 1024 0 929.092683 0 811.707317v-599.414634C0 94.907317 94.907317 0 212.292683 0h599.414634C929.092683 0 1024 94.907317 1024 212.292683v599.414634c0 117.385366-94.907317 212.292683-212.292683 212.292683zM212.292683 24.97561C109.892683 24.97561 24.97561 109.892683 24.97561 212.292683v599.414634C24.97561 914.107317 109.892683 999.02439 212.292683 999.02439h599.414634c102.4 0 187.317073-84.917073 187.317073-187.317073v-599.414634C999.02439 109.892683 914.107317 24.97561 811.707317 24.97561h-599.414634z" p-id="4641" fill="#e6e6e6"></path><path d="M89.912195 949.073171l27.473171-24.97561 274.731707-422.087805L127.37561 89.912195h202.302439l172.331707 277.229268 169.834146-277.229268h199.804878L604.409756 507.004878l272.234146 412.097561 34.965854 19.980488-42.458536 9.990244h-179.824391L499.512195 651.863415 307.2 949.073171H129.873171z" p-id="4642" fill="#e6e6e6"></path></svg>